<svg width="1350" height="350" viewBox="0 0 1350 350" fill="none" xmlns="http://www.w3.org/2000/svg">
<g opacity="0.6">
<line x1="54.0156" y1="2.1965e-08" x2="54.0156" y2="350" stroke="#7896FF" stroke-width="2"/>
<line x1="1350" y1="41" y2="41" stroke="#7896FF" stroke-width="2"/>
<line x1="1350" y1="130.999" y2="130.999" stroke="#7896FF" stroke-width="2"/>
<line x1="1350" y1="221" y2="221" stroke="#7896FF" stroke-width="2"/>
<line x1="1350" y1="311" y2="311" stroke="#7896FF" stroke-width="2"/>
<line x1="150.016" y1="2.1965e-08" x2="150.016" y2="350" stroke="#7896FF" stroke-width="2"/>
<line x1="246.016" y1="2.1965e-08" x2="246.016" y2="350" stroke="#7896FF" stroke-width="2"/>
<line x1="342.016" y1="2.1965e-08" x2="342.016" y2="350" stroke="#7896FF" stroke-width="2"/>
<line x1="438.016" y1="2.18557e-08" x2="438.016" y2="350" stroke="#7896FF" stroke-width="2"/>
<line x1="534.016" y1="2.18557e-08" x2="534.016" y2="350" stroke="#7896FF" stroke-width="2"/>
<line x1="630.016" y1="2.18557e-08" x2="630.016" y2="350" stroke="#7896FF" stroke-width="2"/>
<line x1="726.016" y1="2.18557e-08" x2="726.016" y2="350" stroke="#7896FF" stroke-width="2"/>
<line x1="822.016" y1="2.18557e-08" x2="822.016" y2="350" stroke="#7896FF" stroke-width="2"/>
<line x1="918.016" y1="2.18557e-08" x2="918.016" y2="350" stroke="#7896FF" stroke-width="2"/>
<line x1="1014.02" y1="2.18557e-08" x2="1014.02" y2="350" stroke="#7896FF" stroke-width="2"/>
<line x1="1110.02" y1="2.18557e-08" x2="1110.02" y2="350" stroke="#7896FF" stroke-width="2"/>
<line x1="1206.02" y1="2.18557e-08" x2="1206.02" y2="350" stroke="#7896FF" stroke-width="2"/>
<line x1="1302.02" y1="2.18557e-08" x2="1302.02" y2="350" stroke="#7896FF" stroke-width="2"/>
</g>
</svg>
