<svg width="144" height="161" viewBox="0 0 144 161" fill="none" xmlns="http://www.w3.org/2000/svg">
<path d="M68.4052 161L34.9334 131.655C34.9334 131.655 -6.02081 113.032 0.757247 103.572C7.53531 94.1129 35.3825 111.077 35.3825 111.077C35.3825 111.077 -3.31569 83.5947 3.46237 75.6322C10.2404 67.6697 46.7848 90.9972 46.7848 90.9972C46.7848 90.9972 -0.304353 56.2656 7.83136 47.5496C15.9569 38.8438 62.1885 73.5347 62.1885 73.5347C62.1885 73.5347 28.3084 45.1466 36.8933 36.8888C42.0483 31.9301 66.4554 48.7002 85.1155 62.8841L84.8093 64.6863C85.7076 64.1365 86.6467 63.5968 87.6062 63.0775C106.95 52.5491 128.632 62.1 138.962 79.8171C146.669 93.0438 143.239 116.891 143.239 116.891" fill="#FED543"/>
<path d="M34.7911 118.937C34.6788 118.937 34.5665 118.917 34.4542 118.886C33.9234 118.703 33.6376 118.122 33.8214 117.593C41.5488 95.2225 53.1858 78.7985 69.3857 67.3639C69.8451 67.0381 70.478 67.1501 70.8047 67.6083C71.1313 68.0665 71.019 68.7079 70.5597 69.0236C54.7272 80.2037 43.3351 96.312 35.7506 118.255C35.6077 118.672 35.2096 118.937 34.7809 118.937H34.7911Z" fill="#181818"/>
<path d="M93.5895 125.433C93.2526 125.433 92.926 125.27 92.732 124.965C77.8897 101.698 95.8965 83.2175 96.0802 83.0342C96.4783 82.6371 97.1214 82.6371 97.5196 83.0342C97.9177 83.4313 97.9177 84.0728 97.5196 84.4699C96.8152 85.1725 80.4927 102.004 94.447 123.875C94.7532 124.354 94.6103 124.975 94.1305 125.28C93.957 125.392 93.7733 125.443 93.5793 125.443L93.5895 125.433Z" fill="#181818"/>
<path d="M95.5196 84.6636C88.3741 84.6636 79.1461 83.7675 75.8285 79.491C74.379 77.6175 74.1442 75.3265 75.1242 72.6791C77.1351 67.2011 83.9438 63.5253 89.6603 60.9288C90.1707 60.6946 90.7831 60.9288 91.0077 61.4379C91.2425 61.947 91.0077 62.5478 90.4973 62.782C85.5669 65.0221 78.8092 68.5553 77.033 73.3715C76.3083 75.357 76.441 76.9455 77.4414 78.2386C81.1469 83.0243 95.7748 83.0039 103.829 82.2402C104.38 82.1689 104.89 82.5966 104.942 83.1566C104.993 83.7166 104.584 84.2156 104.023 84.2665C102.675 84.3988 99.4088 84.6636 95.5094 84.6636H95.5196Z" fill="#181818"/>
<path d="M100 31C86.2909 21.5539 64.0111 15.213 42 21.5538" stroke="#FED543" stroke-width="2" stroke-linecap="round"/>
<path d="M100 6.22726C76.7448 -1.84137 42.6083 -1.98965 14 16" stroke="#FED543" stroke-width="2" stroke-linecap="round"/>
</svg>
