<svg width="454" height="241" viewBox="0 0 454 241" xmlns="http://www.w3.org/2000/svg">
    <path style="fill:none; stroke:#FED543; stroke-width:2px;"
          d="M166.5 26.6156L165.668 26.0608L166.5 26.6156ZM113.5 26.6154L112.675 26.0496L113.5 26.6154ZM453.887 64.9684C454.142 64.4785 453.952 63.8746 453.462 63.6197L445.478 59.4648C444.988 59.2098 444.384 59.4003 444.129 59.8902C443.874 60.3801 444.065 60.984 444.555 61.2389L451.651 64.9321L447.958 72.0286C447.703 72.5185 447.894 73.1224 448.383 73.3773C448.873 73.6323 449.477 73.4418 449.732 72.9519L453.887 64.9684ZM1.94446 241.329C33.0558 151.916 69.3081 106.024 100.229 78.7199C115.7 65.0586 129.857 56.0315 141.452 48.507C152.989 41.0201 162.159 34.9278 167.332 27.1704L165.668 26.0608C160.771 33.4039 152.008 39.2723 140.363 46.8293C128.776 54.3487 114.502 63.4488 98.9051 77.2207C67.6905 104.784 31.2628 150.983 0.0555403 240.671L1.94446 241.329ZM167.332 27.1704C172.455 19.4877 173.482 12.9613 171.282 8.13152C169.08 3.2988 163.839 0.579993 157.379 0.0838763C144.442 -0.909671 125.838 6.86666 112.675 26.0496L114.325 27.1812C127.162 8.47297 145.128 1.14891 157.226 2.078C163.283 2.54321 167.676 5.04148 169.462 8.96064C171.248 12.8828 170.615 18.6431 165.668 26.0608L167.332 27.1704ZM112.675 26.0496C104.897 37.3862 101.48 47.511 101.982 56.4366C102.485 65.3964 106.927 72.9823 114.514 79.2271C129.605 91.6504 157.324 98.9283 192.362 101.608C262.536 106.976 362.957 93.9566 453.301 65.4604L452.699 63.553C362.543 91.9902 262.381 104.959 192.514 99.6143C157.532 96.9384 130.365 89.6852 115.785 77.683C108.535 71.715 104.444 64.6145 103.978 56.3244C103.51 48.0001 106.687 38.3115 114.325 27.1812L112.675 26.0496Z"
    />
</svg>
