<svg width="128" height="128" viewBox="0 0 128 128" fill="none" xmlns="http://www.w3.org/2000/svg">
<circle cx="64.0002" cy="64" r="52" transform="rotate(-15 64.0002 64)" fill="#FED543"/>
<g clip-path="url(#clip0_1601_2659)">
<path d="M31.23 51.8163L30.9065 50.6089L29.699 50.9325L30.0226 52.1399L31.23 51.8163ZM86.2878 37.0637L87.4952 36.7401L87.1716 35.5327L85.9642 35.8563L86.2878 37.0637ZM96.7699 76.1837L96.9384 77.4222L98.3446 77.2309L97.9773 75.8601L96.7699 76.1837ZM41.7122 90.9363L40.5047 91.2599L40.8704 92.6246L42.1804 92.0953L41.7122 90.9363ZM63.8058 63.2756L63.391 64.4547L64.7546 64.0893L63.8058 63.2756ZM31.5535 53.0238L86.6113 38.2711L85.9642 35.8563L30.9065 50.6089L31.5535 53.0238ZM85.0803 37.3872L95.5625 76.5072L97.9773 75.8601L87.4952 36.7401L85.0803 37.3872ZM96.6014 74.9451C75.8933 77.7621 61.3039 81.6721 41.2439 89.7774L42.1804 92.0953C62.0549 84.065 76.4433 80.2103 96.9384 77.4222L96.6014 74.9451ZM42.9196 90.6128L32.4374 51.4928L30.0226 52.1399L40.5047 91.2599L42.9196 90.6128ZM30.8152 52.9955L63.391 64.4547L64.2206 62.0964L31.6448 50.6372L30.8152 52.9955ZM64.7546 64.0893L87.2366 37.8775L85.3389 36.2499L62.857 62.4618L64.7546 64.0893Z" fill="black"/>
</g>
<defs>
<clipPath id="clip0_1601_2659">
<rect width="60" height="60" fill="white" transform="translate(27.2578 42.7868) rotate(-15)"/>
</clipPath>
</defs>
</svg>
