<svg width="40" height="40" viewBox="0 0 40 40" fill="none" xmlns="http://www.w3.org/2000/svg">
<rect width="40" height="40" fill="#9DB9FF"/>
<path d="M13.7826 12.812V29M26.2174 12.812V29M24.2785 12.812H31V13.0501L30.9474 13.3453C30.0607 18.3471 30.0607 23.4649 30.9474 28.4667L31 28.7619V29H9V28.7619L9.05261 28.4667C9.93939 23.4649 9.93939 18.3471 9.05261 13.3453L9 13.0501V12.812H15.7215M24.2785 12.812C24.1616 11.7639 23.6596 10.7955 22.8703 10.0922C22.081 9.38888 21.0588 9 19.9995 9C18.9402 9 17.9181 9.38888 17.1288 10.0922C16.3395 10.7955 15.8384 11.7639 15.7215 12.812M24.2785 12.812H15.7215" stroke="black" stroke-width="1.5"/>
</svg>
