<svg width="40" height="40" viewBox="0 0 40 40" fill="none" xmlns="http://www.w3.org/2000/svg">
<rect width="40" height="40" fill="#9DB9FF"/>
<g clip-path="url(#clip0_1401_2671)">
<path d="M8.6001 11.9V11.15H7.8501V11.9H8.6001ZM31.4001 11.9H32.1501V11.15H31.4001V11.9ZM31.4001 28.1L31.3054 28.844L32.1501 28.9515V28.1H31.4001ZM8.6001 28.1H7.8501V28.9478L8.69152 28.8444L8.6001 28.1ZM20.0001 19.7L19.5766 20.319H20.4236L20.0001 19.7ZM8.6001 12.65H31.4001V11.15H8.6001V12.65ZM30.6501 11.9V28.1H32.1501V11.9H30.6501ZM31.4948 27.356C23.1808 26.2979 17.1183 26.2983 8.50868 27.3556L8.69152 28.8444C17.1819 27.8018 23.1194 27.8022 31.3054 28.844L31.4948 27.356ZM9.3501 28.1V11.9H7.8501V28.1H9.3501ZM8.17658 12.519L19.5766 20.319L20.4236 19.081L9.02361 11.281L8.17658 12.519ZM20.4236 20.319L31.8236 12.519L30.9766 11.281L19.5766 19.081L20.4236 20.319Z" fill="black"/>
</g>
<defs>
<clipPath id="clip0_1401_2671">
<rect width="24" height="24" fill="white" transform="translate(8 8)"/>
</clipPath>
</defs>
</svg>
