<svg width="40" height="40" viewBox="0 0 40 40" fill="none" xmlns="http://www.w3.org/2000/svg">
<rect width="40" height="40" fill="#9DB9FF"/>
<path d="M25.4 21.8V29M29 25.4H21.8M18.2 14.6C18.2 16.5882 16.5882 18.2 14.6 18.2C12.6118 18.2 11 16.5882 11 14.6C11 12.6118 12.6118 11 14.6 11C16.5882 11 18.2 12.6118 18.2 14.6ZM29 14.6C29 16.5882 27.3882 18.2 25.4 18.2C23.4118 18.2 21.8 16.5882 21.8 14.6C21.8 12.6118 23.4118 11 25.4 11C27.3882 11 29 12.6118 29 14.6ZM18.2 25.4C18.2 27.3882 16.5882 29 14.6 29C12.6118 29 11 27.3882 11 25.4C11 23.4118 12.6118 21.8 14.6 21.8C16.5882 21.8 18.2 23.4118 18.2 25.4Z" stroke="black" stroke-width="1.5"/>
</svg>
