<svg width="144" height="144" viewBox="0 0 144 144" fill="none" xmlns="http://www.w3.org/2000/svg">
<path d="M144.001 80.1086L124.847 47.8505C124.847 47.8505 136.954 10.5705 130.8 2.05417C123.6 -5.60222 100.201 8.53327 86.2221 37.9522C86.2221 37.9522 58.4454 11.8953 43.2802 22.2661C38.0994 25.8097 37.5522 31.184 39.6683 36.6647C39.6683 36.6647 25.0624 31.1368 19.4925 36.6647C12.5969 43.5038 16.9143 53.2603 24.6124 60.4774C24.2233 60.3947 12.0375 57.7488 7.29459 64.2217C2.94081 70.1749 5.05689 77.0139 9.92145 82.6835C9.86064 82.6481 3.12415 81.5088 0.696584 90.0765C-5.99689 113.7 83.206 143.999 83.206 143.999" fill="#FED543"/>
<path d="M66.2629 58.9684C68.3498 58.9684 70.2911 58.5069 71.9898 57.5009C80.8106 52.2814 71.8442 36.6468 71.4559 35.984C71.1283 35.4159 70.3882 35.2147 69.8058 35.5343C69.2234 35.8538 69.0171 36.5758 69.3447 37.1439C69.4297 37.2859 77.5468 51.4293 70.7279 55.4652C63.6179 59.6667 49.9681 51.2281 43.4041 41.4402C40.941 37.7712 36.0514 28.6342 43.8651 23.2727C44.4111 22.894 44.5446 22.1602 44.1563 21.6276C43.7681 21.095 43.0158 20.9648 42.4698 21.3436C35.8451 25.8884 35.4326 33.8891 41.3657 42.742C47.3231 51.6305 57.9153 58.9566 66.2508 58.9566L66.2629 58.9684Z" fill="#181818"/>
<path d="M44.8573 71.4892C47.5873 71.4892 50.0746 70.7909 52.0402 69.2404C60.0359 62.944 50.4143 49.4989 50.0018 48.919C49.6135 48.3864 48.8613 48.2562 48.3153 48.635C47.7693 49.0137 47.6358 49.7475 48.0241 50.2801C48.109 50.3984 56.7478 62.4824 50.5235 67.3941C44.3599 72.2466 31.4259 66.3526 23.6607 58.0323C20.9672 55.1326 12.7409 45.0961 20.2998 37.5806C20.773 37.1191 20.7609 36.3616 20.2877 35.9119C19.8145 35.4503 19.038 35.4621 18.5769 35.9237C12.5589 41.9124 13.8329 50.9902 21.8771 59.6301C28.1985 66.4236 37.4804 71.4892 44.8695 71.501L44.8573 71.4892Z" fill="#181818"/>
<path d="M32.7043 95.9473C36.3685 95.9473 39.5716 94.7637 41.6706 91.9587C47.81 83.7686 36.4655 67.7552 35.9802 67.0806C35.5919 66.548 34.8397 66.4178 34.2937 66.7847C33.7477 67.1635 33.6142 67.8973 33.9904 68.4299C34.0996 68.5837 44.8374 83.7331 39.7172 90.5503C35.5434 96.1248 24.939 93.2488 17.0767 87.7098C8.72914 81.8394 2.77173 72.5486 8.25592 65.0213C8.64418 64.4887 8.51073 63.7549 7.96474 63.3762C7.41874 62.9974 6.66651 63.1276 6.27825 63.6602C-0.176592 72.5131 6.33889 83.0822 15.6572 89.639C21.0079 93.4027 27.3535 95.9354 32.7043 95.9354V95.9473Z" fill="#181818"/>
<path d="M21.3093 112.732C23.9899 112.732 26.3332 111.707 27.8688 109.277C32.3602 102.182 25.9152 93.1968 25.5602 92.6124C25.2762 92.151 24.7258 92.0382 24.3264 92.3561C23.927 92.6842 23.8293 93.3199 24.1045 93.7813C24.1844 93.9146 30.1855 102.151 26.4398 108.057C23.3863 112.886 15.6285 110.395 9.87673 105.596C3.76989 100.51 -0.68544 92.8654 3.32661 86.3443C3.61065 85.8829 3.51302 85.2472 3.11359 84.9191C2.71416 84.591 2.16385 84.7038 1.87981 85.1652C-2.84234 92.8346 2.02127 101.587 8.8382 107.267C12.7526 110.528 17.3949 112.722 21.3093 112.722V112.732Z" fill="#181818"/>
</svg>
